# xmcd
#
# Track frame offsets: 
#        150
#        22538
#        39043
#        56870
#        71278
#        90705
#        107523
#        123673
#        143918
#        161280
#        182278
#        204343
#
# Disc length: 2814 seconds
#
# Revision: 1
# Processed by: cddbd v1.5.2PL0 Copyright (c) Steve Scherf et al.
# Submitted via: ExactAudioCopyFreeDBPlugin 1.0
#
DISCID=8b0afc0c
DTITLE=Tadeusz Nalepa - Absolutnie
DYEAR=1991
DGENRE=Blues
TTITLE0=Wiara w nowy dzień
TTITLE1=Co to za człowiek
TTITLE2=Zanim odnalazłem cię
TTITLE3=Biegniesz tu
TTITLE4=Pukam do drzwi twego snu
TTITLE5=Wara od mych marzeń
TTITLE6=Słuchaj rytmu
TTITLE7=Spokojnie swoje śnij
TTITLE8=Tobie to mówię dziś
TTITLE9=Nocą puka ktoś
TTITLE10=Co tam jest
TTITLE11=Ucisz lęki
EXTD=
EXTT0=
EXTT1=
EXTT2=
EXTT3=
EXTT4=
EXTT5=
EXTT6=
EXTT7=
EXTT8=
EXTT9=
EXTT10=
EXTT11=
PLAYORDER=
